# xmcd
#
# Track frame offsets: 
#        150
#        16059
#        41290
#        62959
#        81149
#        96643
#        113814
#        133687
#        154476
#        175265
#        191605
#        209661
#        227796
#        243604
#
# Disc length: 3497 seconds
#
# Revision: 0
# Processed by: cddbd v1.5.2PL0 Copyright (c) Steve Scherf et al.
# Submitted via: ExactAudioCopy v1.3
#
DISCID=c70da70e
DTITLE=Sara Evans - Greatest Hits
DYEAR=2007
DGENRE=Country
TTITLE0=As If
TTITLE1=Born To Fly
TTITLE2=I Could Not Ask For More
TTITLE3=Perfect
TTITLE4=Cheatin'
TTITLE5=Suds In The Bucket
TTITLE6=Saints And Angels
TTITLE7=You'll Always Be My Baby
TTITLE8=I Keep Looking
TTITLE9=No Place That Far
TTITLE10=A Real Fine Place To Start
TTITLE11=Love You With All My Heart
TTITLE12=Pray For You
TTITLE13=Some Things Never Change
EXTD=
EXTT0=
EXTT1=
EXTT2=
EXTT3=
EXTT4=
EXTT5=
EXTT6=
EXTT7=
EXTT8=
EXTT9=
EXTT10=
EXTT11=
EXTT12=
EXTT13=
PLAYORDER=
